<svg version="1.1" id="Layer_1" xmlns="http://www.w3.org/2000/svg"
	xmlns:xlink="http://www.w3.org/1999/xlink" viewBox="0 0 55.764 55.764" xml:space="preserve"
	fill="#000000"><g id="SVGRepo_bgCarrier" stroke-width="0"></g><g id="SVGRepo_tracerCarrier" stroke-linecap="round" stroke-linejoin="round"></g><g id="SVGRepo_iconCarrier"> <g> <rect x="9.882" y="35.292" style="fill:#66CEDB;" width="2" height="14"></rect> <path style="fill:#F8CF26;" d="M17.329,48.251l10.902,5.378c0.385,0.192,0.836,0.141,1.206-0.075l21.815-12.743 c0.389-0.227,0.63-0.656,0.63-1.105c0-0.375-0.165-0.734-0.452-0.976s-0.662-0.348-1.034-0.281l-18.444,3.207l0.809,0.809 c0.723,0.723,1.121,1.684,1.121,2.706c0,2.111-1.718,3.828-3.828,3.828c-1.024,0-1.984-0.398-2.707-1.122l-5.172-5.171l1.414-1.414 l5.172,5.171c0.341,0.34,0.811,0.536,1.293,0.536c1.008,0,1.828-0.82,1.828-1.829c0-0.488-0.19-0.802-0.535-1.147l-7.879-7.731 h-9.586v12h3C17.037,48.292,17.191,48.182,17.329,48.251z"></path> <circle style="fill:#EE8B26;" cx="35.882" cy="19.5" r="1"></circle> <circle style="fill:#EE8B26;" cx="27.882" cy="13.5" r="1"></circle> <path style="fill:#EE8B26;" d="M16.749,19.602l15.133,15.945l15.133-15.945c3.822-4.026,3.822-10.578,0-14.604 c-1.835-1.934-4.271-2.999-6.858-2.999c-2.589,0-5.024,1.065-6.859,2.999l-0.689,0.727c-0.379,0.398-1.072,0.398-1.451,0 l-0.689-0.727c-1.835-1.934-4.271-2.999-6.859-2.999s-5.023,1.065-6.858,2.999C12.927,9.024,12.927,15.576,16.749,19.602z M28.882,26h-2v-2h2V26z M32.882,26h-2v-2h2V26z M36.882,26h-2v-2h2V26z M38.882,19.5c0,1.654-1.346,3-3,3s-3-1.346-3-3 s1.346-3,3-3S38.882,17.845,38.882,19.5z M36.142,10.327l1.48,1.346l-10,11l-1.48-1.346L36.142,10.327z M27.882,10.5 c1.654,0,3,1.346,3,3s-1.346,3-3,3s-3-1.346-3-3C24.882,11.845,26.228,10.5,27.882,10.5z"></path> <g> <path d="M52.718,37.195c-0.741-0.624-1.72-0.883-2.664-0.719l-19.832,3.449l-5.633-5.487c-0.188-0.187-0.441-0.146-0.707-0.146 h-10c0-1-0.447-1-1-1h-4h-7v2h6v14h-6v2h7h4c0.553,0,1-1,1-1h2.764l10.691,5.199c0.463,0.231,0.963,0.274,1.463,0.273 c0.568,0,1.137-0.186,1.645-0.483l21.817-12.743c0.999-0.584,1.62-1.675,1.62-2.832C53.882,38.739,53.457,37.818,52.718,37.195z M11.882,49.292h-2v-14h2V49.292z M51.253,40.792L29.438,53.518c-0.37,0.216-0.821,0.231-1.206,0.038L17.33,48.251 c-0.139-0.069-0.293,0.041-0.448,0.041h-3v-12h9.586l7.879,7.732c0.345,0.345,0.535,0.732,0.535,1.22 c0,1.008-0.82,1.792-1.828,1.792c-0.482,0-0.952-0.214-1.293-0.554l-5.172-5.181l-1.414,1.409l5.172,5.169 C28.07,48.603,29.031,49,30.054,49c2.11,0,3.828-1.718,3.828-3.829c0-1.022-0.398-1.984-1.121-2.707l-0.809-0.809l18.444-3.208 c0.372-0.067,0.747,0.037,1.034,0.279c0.287,0.241,0.452,0.595,0.452,0.971C51.882,40.146,51.641,40.566,51.253,40.792z"></path> <rect x="24.451" y="15.506" transform="matrix(-0.6727 0.7399 -0.7399 -0.6727 65.5453 4.0191)" width="14.866" height="2.001"></rect> <path d="M27.882,16.5c1.654,0,3-1.346,3-3s-1.346-3-3-3s-3,1.346-3,3S26.228,16.5,27.882,16.5z M27.882,12.5c0.552,0,1,0.449,1,1 s-0.448,1-1,1s-1-0.449-1-1S27.33,12.5,27.882,12.5z"></path> <path d="M32.882,19.5c0,1.654,1.346,3,3,3s3-1.346,3-3s-1.346-3-3-3S32.882,17.845,32.882,19.5z M36.882,19.5c0,0.551-0.448,1-1,1 s-1-0.449-1-1s0.448-1,1-1S36.882,18.948,36.882,19.5z"></path> <path d="M31.156,37.688C31.345,37.887,31.607,38,31.882,38c0.274,0,0.536-0.113,0.726-0.312L48.466,20.98 c4.542-4.786,4.542-12.573,0-17.358C46.249,1.286,43.298,0,40.156,0c-3.126,0-6.062,1.272-8.274,3.584 C29.67,1.272,26.734,0,23.608,0c-3.142,0-6.093,1.286-8.31,3.622c-4.542,4.786-4.542,12.573,0,17.358L31.156,37.688z M16.749,4.998c1.835-1.934,4.27-2.999,6.858-2.999c2.589,0,5.024,1.065,6.859,2.999l0.689,0.727c0.379,0.398,1.072,0.398,1.451,0 l0.689-0.727c1.835-1.934,4.27-2.999,6.859-2.999c2.588,0,5.023,1.065,6.858,2.999c3.822,4.026,3.822,10.578,0,14.604 l-15.13,15.945L16.749,19.602C12.927,15.576,12.927,9.024,16.749,4.998z"></path> <rect x="26.882" y="24" width="2" height="2"></rect> <rect x="30.882" y="24" width="2" height="2"></rect> <rect x="34.882" y="24" width="2" height="2"></rect> </g> </g> </g></svg>